<svg width="122" height="119" viewBox="0 0 122 119" fill="none" xmlns="http://www.w3.org/2000/svg">
<path d="M60.8123 106.5C61.179 106.5 61.5457 106.402 61.9123 106.206C62.279 106.01 62.554 105.815 62.7373 105.619L107.837 57.4437C108.937 56.2687 109.739 54.9469 110.244 53.4781C110.748 52.0094 111 50.5406 111 49.0719C111 47.5052 110.748 46.012 110.244 44.5922C109.739 43.1724 108.937 41.924 107.837 40.8469L84.4623 15.8781C83.454 14.7031 82.2852 13.8464 80.9561 13.3078C79.6269 12.7693 78.229 12.5 76.7623 12.5C75.3873 12.5 74.0123 12.7693 72.6373 13.3078C71.2623 13.8464 70.0248 14.7031 68.9248 15.8781L67.4123 17.4937L77.5873 28.5094C78.9623 29.8802 79.9707 31.4469 80.6123 33.2094C81.254 34.9719 81.5748 36.8323 81.5748 38.7906C81.5748 42.9031 80.2686 46.3547 77.6561 49.1453C75.0436 51.9359 71.8123 53.3312 67.9623 53.3312C66.129 53.3312 64.3644 52.9885 62.6686 52.3031C60.9727 51.6177 59.4832 50.5896 58.1998 49.2187L47.8873 38.35L23.8248 64.0531C23.5498 64.3469 23.3436 64.6651 23.2061 65.0078C23.0686 65.3505 22.9998 65.7177 22.9998 66.1094C22.9998 66.8927 23.2748 67.6026 23.8248 68.2391C24.3748 68.8755 25.0165 69.1937 25.7498 69.1937C26.1165 69.1937 26.4832 69.0958 26.8498 68.9C27.2165 68.7042 27.4915 68.5083 27.6748 68.3125L46.3748 48.3375L54.0748 56.5625L35.5123 76.5375C35.2373 76.8312 35.0311 77.1495 34.8936 77.4922C34.7561 77.8349 34.6873 78.2021 34.6873 78.5938C34.6873 79.3771 34.9623 80.0625 35.5123 80.65C36.0623 81.2375 36.704 81.5312 37.4373 81.5312C37.804 81.5312 38.1707 81.4333 38.5373 81.2375C38.904 81.0417 39.179 80.8458 39.3623 80.65L58.0623 60.8219L65.7623 69.0469L47.1998 89.0219C46.9248 89.2177 46.7186 89.5115 46.5811 89.9031C46.4436 90.2948 46.3748 90.6865 46.3748 91.0781C46.3748 91.8615 46.6498 92.5469 47.1998 93.1344C47.7498 93.7219 48.3915 94.0156 49.1248 94.0156C49.4915 94.0156 49.8352 93.9422 50.1561 93.7953C50.4769 93.6484 50.7748 93.4281 51.0498 93.1344L69.7498 73.3062L77.4498 81.5312L58.7498 101.506C58.4748 101.8 58.2686 102.118 58.1311 102.461C57.9936 102.804 57.9248 103.171 57.9248 103.562C57.9248 104.346 58.2227 105.031 58.8186 105.619C59.4144 106.206 60.079 106.5 60.8123 106.5ZM60.6748 118.25C57.2832 118.25 54.2811 117.051 51.6686 114.652C49.0561 112.253 47.5207 109.242 47.0623 105.619C43.9457 105.129 41.3332 103.758 39.2248 101.506C37.1165 99.2542 35.8332 96.4635 35.3748 93.1344C32.2582 92.6448 29.6686 91.2495 27.6061 88.9484C25.5436 86.6474 24.2832 83.8812 23.8248 80.65C20.3415 80.1604 17.4998 78.5448 15.2998 75.8031C13.0998 73.0615 11.9998 69.8302 11.9998 66.1094C11.9998 64.151 12.3436 62.2661 13.0311 60.4547C13.7186 58.6432 14.704 57.0521 15.9873 55.6812L47.8873 21.7531L65.8998 40.9937C66.0832 41.2875 66.3582 41.5078 66.7248 41.6547C67.0915 41.8016 67.4582 41.875 67.8248 41.875C68.6498 41.875 69.3373 41.6057 69.8873 41.0672C70.4373 40.5286 70.7123 39.8187 70.7123 38.9375C70.7123 38.5458 70.6436 38.1542 70.5061 37.7625C70.3686 37.3708 70.1623 37.0771 69.8873 36.8812L50.2248 15.8781C49.2165 14.7031 48.0477 13.8464 46.7186 13.3078C45.3894 12.7693 43.9915 12.5 42.5248 12.5C41.1498 12.5 39.7748 12.7693 38.3998 13.3078C37.0248 13.8464 35.7873 14.7031 34.6873 15.8781L15.2998 36.7344C14.4748 37.6156 13.7873 38.6437 13.2373 39.8187C12.6873 40.9937 12.3207 42.1687 12.1373 43.3438C11.954 44.5187 11.954 45.7182 12.1373 46.9422C12.3207 48.1661 12.6873 49.3167 13.2373 50.3937L5.26232 58.9125C3.70399 56.6604 2.55816 54.188 1.82482 51.4953C1.09149 48.8026 0.816491 46.0854 0.999824 43.3438C1.18316 40.6021 1.82482 37.9339 2.92482 35.3391C4.02482 32.7443 5.53732 30.4187 7.46232 28.3625L26.8498 7.65312C29.0498 5.40104 31.5019 3.6875 34.2061 2.5125C36.9102 1.3375 39.6832 0.75 42.5248 0.75C45.3665 0.75 48.1394 1.3375 50.8436 2.5125C53.5477 3.6875 55.954 5.40104 58.0623 7.65312L59.5748 9.26875L61.0873 7.65312C63.2873 5.40104 65.7394 3.6875 68.4436 2.5125C71.1477 1.3375 73.9207 0.75 76.7623 0.75C79.604 0.75 82.3769 1.3375 85.0811 2.5125C87.7852 3.6875 90.1915 5.40104 92.2998 7.65312L115.537 32.475C117.646 34.7271 119.25 37.3219 120.35 40.2594C121.45 43.1969 122 46.1833 122 49.2187C122 52.2542 121.45 55.2161 120.35 58.1047C119.25 60.9932 117.646 63.5635 115.537 65.8156L70.4373 113.844C69.154 115.215 67.6644 116.292 65.9686 117.075C64.2727 117.858 62.5082 118.25 60.6748 118.25Z" fill="#FFF4A4"/>
</svg>
