<svg width="189" height="228" viewBox="0 0 189 228" fill="none" xmlns="http://www.w3.org/2000/svg">
<path d="M69.5 183.5L65.5 188.5L64 188L63 185.5L62.5 183V180.5L63 178L63.5 176L64 174L65.5 171L67.5 167.5L70.5 163L73.5 159.5L75.5 156L78 152L80 149L80.5 146.5L81 146L91.5 155.5L90 157.5L86.5 162L82.5 167.5L77.5 173.5L74 179L69.5 183.5Z" fill="#006D5A"/>
<path d="M86.5 207.5L82.5 211.5L79.5 207.5V203.5V199.5L80.5 196L82.5 192.5L85.5 188L90.5 181.5L95 175.5L99.5 168.5L102 163L103 157.5L104.5 145.5V141L103 136.5L100.5 132L97.5 127.5L96 125L93.5 121.5L92.5 119H99.5L103 120L104.5 121.5L109 127.5L114.5 133.5L119 141L122 147.5L124 154.5V157.5L122 163L120.5 166.5L119 169.5L116.5 173.5L113.5 177.5L110 181.5L104.5 187L99.5 192.5L95 197L90.5 202.5L86.5 207.5Z" fill="#006D5A"/>
<path d="M143.5 153V140L140 137L137 135L132.5 132.5L129 130.5L125.5 128.5L120.5 125.5L117 123.5L112 121L108.5 120L106 119.5L104 120.5L105.5 123L109.5 127.5L113.5 132L117 137L120.5 143L123.5 149L125 155.5V160.5V166.5V172L123.5 175.5L121.5 180.5L117 188.5L113.5 194.5L111.5 199L108.5 206.5L107.5 212V218L109.5 223.5L112 227L114.5 228L116 223.5L118.5 219L121.5 213L125 206.5L128.5 199.5L133 192L136.5 185.5L140 178.5L142 172L143.5 168V162V153Z" fill="#006D5A"/>
<path d="M16 22.5L12 0H6.5H-1.5L-11.5 3L-20 5.5L-29 9.5L-36 12L-42.5 15L-47 18.5L-46 22.5L-42.5 32L-37.5 43L-32 56L-28 64L-22.5 76L-17.5 83L-11.5 93.5L-6.5 98.5L-1.5 104L6.5 110L13.5 114.25L22.5 116.5L37.5 121.5L51 126L59 131L67.5 136.5L76.5 141.5L82.5 147L90.5 154L95.5 157.5L101 160L108 161.5H115L122 157.5L120 155.5L115 150.5L110 147L105.5 141.5L101 136.5L95.5 131L92 126L84.5 118.5L92 119.5H108L115 121.5L126 129L136 133.5L145 139.5L150.5 147L156.5 155.5L161 163.5L165 172.5L169 179.5L174 184.5L179 188L183.5 189.5H188.5L186 182.5L179 163.5L174 150.5L167.5 136.5L162.5 129L156.5 121.5L145 112L136 106.5L130 102L120 96L113.5 92L103.5 86.5L87.5 80L72 73.5L57.5 67.5L45 63L36.5 59.5L29.5 56L26 51.5L22.5 43L19.5 32L16 22.5Z" fill="#006D5A"/>
</svg>
