<svg width="99" height="106" viewBox="0 0 99 106" fill="none" xmlns="http://www.w3.org/2000/svg">
<path d="M22 82.375H33V53H22V82.375ZM66 82.375H77V23.625H66V82.375ZM44 82.375H55V64.75H44V82.375ZM44 53H55V41.25H44V53ZM11 105.875C7.975 105.875 5.38542 104.724 3.23125 102.423C1.07708 100.122 0 97.3562 0 94.125V11.875C0 8.64375 1.07708 5.8776 3.23125 3.57656C5.38542 1.27552 7.975 0.125 11 0.125H88C91.025 0.125 93.6146 1.27552 95.7688 3.57656C97.9229 5.8776 99 8.64375 99 11.875V94.125C99 97.3562 97.9229 100.122 95.7688 102.423C93.6146 104.724 91.025 105.875 88 105.875H11ZM11 94.125H88V11.875H11V94.125Z" fill="#FFF4A4"/>
</svg>
