<svg width="56" height="119" viewBox="0 0 56 119" fill="none" xmlns="http://www.w3.org/2000/svg">
<path d="M0.5 0.75H55.5V46.8687C55.5 49.1208 55.0417 51.1281 54.125 52.8906C53.2083 54.6531 51.925 56.0729 50.275 57.15L30.75 69.4875L34.6 83H55.5L38.45 95.925L45.05 118.25L28 104.444L10.95 118.25L17.55 95.925L0.5 83H21.4L25.25 69.4875L5.725 57.15C4.075 56.0729 2.79167 54.6531 1.875 52.8906C0.958333 51.1281 0.5 49.1208 0.5 46.8687V0.75ZM11.5 12.5V46.8687L22.5 53.9187V12.5H11.5ZM44.5 12.5H33.5V53.9187L44.5 46.8687V12.5Z" fill="#FFF4A4"/>
</svg>
