<svg width="118" height="113" viewBox="0 0 118 113" fill="none" xmlns="http://www.w3.org/2000/svg">
<path d="M110.15 98.8625L93.6504 81.2375L101.35 73.0125L117.85 90.6375L110.15 98.8625ZM90.3504 28.3625L82.6504 20.1375L99.1504 2.5125L106.85 10.7375L90.3504 28.3625ZM27.6504 28.3625L11.1504 10.7375L18.8504 2.5125L35.3504 20.1375L27.6504 28.3625ZM7.85039 98.8625L0.150391 90.6375L16.6504 73.0125L24.3504 81.2375L7.85039 98.8625ZM41.6754 87.8469L59.0004 76.6844L76.3254 87.9937L71.7879 66.8438L87.0504 52.7437L66.9754 50.8344L59.0004 30.8594L51.0254 50.6875L30.9504 52.5969L46.2129 66.8438L41.6754 87.8469ZM25.0379 112.375L33.9754 71.1031L4.00039 43.3438L43.6004 39.6719L59.0004 0.75L74.4004 39.6719L114 43.3438L84.0254 71.1031L92.9629 112.375L59.0004 90.4906L25.0379 112.375Z" fill="#FFF4A4"/>
</svg>
