<svg width="116" height="118" viewBox="0 0 116 118" fill="none" xmlns="http://www.w3.org/2000/svg">
<path d="M65.5875 49.9186L42.2125 24.9498L50.05 16.7248L65.5875 33.3217L96.8 0.12793L104.5 8.35293L65.5875 49.9186ZM33 93.6873L71.225 104.85L103.95 93.9811C103.492 93.0998 102.827 92.341 101.956 91.7045C101.085 91.068 100.1 90.7498 99 90.7498H71.225C68.75 90.7498 66.7792 90.6519 65.3125 90.4561C63.8458 90.2602 62.3333 89.8686 60.775 89.2811L47.9875 84.7279L51.0125 73.2717L62.15 77.2373C63.7083 77.7269 65.5417 78.1186 67.65 78.4123C69.7583 78.7061 72.875 78.9019 77 78.9998C77 77.9227 76.7021 76.8946 76.1063 75.9154C75.5104 74.9363 74.8 74.2998 73.975 74.0061L41.8 61.3748H33V93.6873ZM0 114.25V49.6248H41.8C42.4417 49.6248 43.0833 49.6982 43.725 49.8451C44.3667 49.992 44.9625 50.1633 45.5125 50.3592L77.825 63.1373C80.85 64.3123 83.3021 66.3686 85.1813 69.3061C87.0604 72.2436 88 75.4748 88 78.9998H99C103.583 78.9998 107.479 80.6154 110.688 83.8467C113.896 87.0779 115.5 91.3373 115.5 96.6248V102.5L71.5 117.187L33 105.731V114.25H0ZM11 102.5H22V61.3748H11V102.5Z" fill="#FFF4A4"/>
</svg>
