<svg width="112" height="119" viewBox="0 0 112 119" fill="none" xmlns="http://www.w3.org/2000/svg">
<path d="M20.575 47.3969L31.3 52.2438C32.5834 49.5021 33.9125 46.8584 35.2875 44.3125C36.6625 41.7667 38.175 39.2209 39.825 36.675L32.125 35.0594L20.575 47.3969ZM40.1 59.5875L55.775 76.1844C59.625 74.6177 63.75 72.2188 68.15 68.9875C72.55 65.7563 76.675 62.0844 80.525 57.9719C86.9417 51.1177 91.9604 43.5047 95.5813 35.1329C99.2021 26.761 100.783 19.05 100.325 12C93.725 11.5105 86.4834 13.1995 78.6 17.0672C70.7167 20.9349 63.5667 26.2959 57.15 33.15C53.3 37.2625 49.8625 41.6688 46.8375 46.3688C43.8125 51.0688 41.5667 55.475 40.1 59.5875ZM64.575 50.0407C62.4667 47.7886 61.4125 45.0224 61.4125 41.7422C61.4125 38.462 62.4667 35.6959 64.575 33.4438C66.6834 31.1917 69.2959 30.0657 72.4125 30.0657C75.5292 30.0657 78.1417 31.1917 80.25 33.4438C82.3584 35.6959 83.4125 38.462 83.4125 41.7422C83.4125 45.0224 82.3584 47.7886 80.25 50.0407C78.1417 52.2927 75.5292 53.4188 72.4125 53.4188C69.2959 53.4188 66.6834 52.2927 64.575 50.0407ZM67.1875 97.1875L78.7375 84.85L77.225 76.625C74.8417 78.3875 72.4584 79.9787 70.075 81.3985C67.6917 82.8183 65.2167 84.2136 62.65 85.5844L67.1875 97.1875ZM110.225 1.27817C111.967 13.1261 110.89 24.6558 106.994 35.8672C103.098 47.0787 96.3834 57.7761 86.85 67.9594L89.6 82.5C89.9667 84.4584 89.875 86.3677 89.325 88.2282C88.775 90.0886 87.8584 91.7042 86.575 93.075L63.475 117.75L51.925 88.8157L28.4125 63.7L1.32502 51.3625L24.2875 26.6875C25.5709 25.3167 27.1063 24.3375 28.8938 23.75C30.6813 23.1625 32.4917 23.0646 34.325 23.4563L47.9375 26.3938C57.4709 16.2105 67.4625 9.01358 77.9125 4.80316C88.3625 0.592749 99.1334 -0.582251 110.225 1.27817ZM11.0875 82.3532C14.2959 78.9261 18.2146 77.1881 22.8438 77.1391C27.4729 77.0901 31.3917 78.7792 34.6 82.2063C37.8084 85.6334 39.3896 89.8193 39.3438 94.7641C39.2979 99.7089 37.6709 103.895 34.4625 107.322C32.1709 109.77 28.3438 111.875 22.9813 113.638C17.6188 115.4 10.2167 116.967 0.775024 118.338C2.05836 108.252 3.52502 100.345 5.17502 94.6172C6.82502 88.8891 8.79586 84.8011 11.0875 82.3532ZM18.925 90.5782C18.0084 91.5573 17.0917 93.3443 16.175 95.9391C15.2584 98.5339 14.6167 101.153 14.25 103.797C16.725 103.405 19.1771 102.744 21.6063 101.814C24.0354 100.884 25.7084 99.9292 26.625 98.95C27.725 97.775 28.3209 96.3552 28.4125 94.6907C28.5042 93.0261 28 91.6063 26.9 90.4313C25.8 89.2563 24.4709 88.6933 22.9125 88.7422C21.3542 88.7912 20.025 89.4032 18.925 90.5782Z" fill="#FFF4A4"/>
</svg>
