<svg width="88" height="118" viewBox="0 0 88 118" fill="none" xmlns="http://www.w3.org/2000/svg">
<path d="M38.225 79.8562L69.3 46.6625L61.4625 38.2906L38.225 63.1125L26.675 50.775L18.8375 59.1469L38.225 79.8562ZM44 117.75C31.2583 114.323 20.7396 106.514 12.4438 94.3234C4.14792 82.1328 0 68.5958 0 53.7125V17.875L44 0.25L88 17.875V53.7125C88 68.5958 83.8521 82.1328 75.5563 94.3234C67.2604 106.514 56.7417 114.323 44 117.75ZM44 105.412C53.5333 102.181 61.4167 95.7187 67.65 86.025C73.8833 76.3312 77 65.5604 77 53.7125V25.9531L44 12.7344L11 25.9531V53.7125C11 65.5604 14.1167 76.3312 20.35 86.025C26.5833 95.7187 34.4667 102.181 44 105.412Z" fill="#FFF4A4"/>
</svg>
