<svg width="183" height="238" viewBox="0 0 183 238" fill="none" xmlns="http://www.w3.org/2000/svg">
<path d="M126.692 49.5176L130.901 44.6922L132.378 45.2555L133.271 47.7957L133.664 50.3147L133.558 52.8125L132.952 55.2889L132.368 57.2659L131.783 59.2428L130.157 62.1764L128.01 65.5882L124.821 69.9566L121.675 73.3259L119.528 76.7378L116.861 80.6279L114.735 83.5402L114.129 86.0167L113.608 86.495L103.522 76.5573L105.105 74.6228L108.793 70.2757L113.023 64.9506L118.274 59.1686L122.005 53.8223L126.692 49.5176Z" fill="#FED16A"/>
<path d="M110.727 24.8168L114.894 20.9904L117.721 25.1143L117.551 29.1107L117.381 33.1071L116.233 36.5614L114.086 39.9732L110.898 44.3417L105.626 50.6233L100.875 56.4266L96.0813 63.229L93.3498 68.6178L92.117 74.0703L90.1083 85.9957L89.917 90.4916L91.2244 95.0513L93.5309 99.6535L96.3369 104.277L97.7293 106.838L100.078 110.442L100.971 112.982L93.9774 112.684L90.5231 111.536L89.0882 109.974L84.8473 103.788L79.6073 97.5598L75.4301 89.8753L72.7091 83.2537L71.0084 76.175L71.1359 73.1777L73.3679 67.7677L75.0153 64.3346L76.6415 61.4011L79.3092 57.511L82.4765 53.6421L86.1434 49.7945L91.8722 44.5332L97.1014 39.2507L101.789 34.946L106.518 29.6423L110.727 24.8168Z" fill="#FED16A"/>
<path d="M51.4622 76.8448L50.9097 89.8331L54.279 92.9791L57.1913 95.1048L61.581 97.7938L64.9928 99.9408L68.4046 102.088L73.2726 105.298L76.6844 107.445L81.5737 110.155L85.028 111.303L87.5045 111.908L89.5452 110.994L88.1528 108.433L84.3477 103.767L80.5426 99.101L77.2582 93.9567L74.0164 87.8134L71.2742 81.6913L70.0518 75.1334L70.2643 70.1379L70.5193 64.1433L70.7531 58.6483L72.4005 55.2152L74.6112 50.3048L79.4472 42.5032L83.199 36.6574L85.3885 32.2465L88.7045 24.8808L89.9374 19.4283L90.1924 13.4337L88.428 7.85365L86.079 4.25056L83.6238 3.1452L81.9339 7.57738L79.2449 11.9671L75.9926 17.8341L72.2195 24.1795L68.4251 31.0244L63.6104 38.3264L59.8373 44.6717L56.0429 51.5166L53.7685 57.9258L52.0998 61.8584L51.8448 67.853L51.4622 76.8448Z" fill="#FED16A"/>
<path d="M173.3 212.646L176.34 235.296L181.835 235.53L189.828 235.87L199.947 233.297L208.545 231.161L217.707 227.547L224.807 225.347L231.429 222.626L236.073 219.32L235.244 215.281L232.151 205.641L227.623 194.439L222.681 181.217L219.024 173.054L214.04 160.831L209.342 153.625L203.793 142.879L199.01 137.671L194.249 131.964L186.511 125.629L179.698 121.085L170.802 118.455L156.028 112.822L142.731 107.752L134.951 102.416L126.692 96.5602L117.913 91.1822L112.152 85.4321L104.457 78.0984L99.6102 74.3891L94.2214 71.6576L87.2915 69.8614L80.2978 69.5639L73.1341 73.2627L75.0473 75.3459L79.8303 80.5539L84.677 84.2633L88.9391 89.9496L93.2226 95.1363L98.4838 100.865L101.768 106.009L108.943 113.821L101.492 112.503L85.5063 111.823L78.5977 109.528L67.9264 101.567L58.1267 96.646L49.3898 90.2689L44.2136 82.5419L38.5803 73.7945L34.4244 65.6105L30.8105 56.4486L27.1117 49.2849L22.3287 44.0769L17.482 40.3676L13.0498 38.6777L8.05431 38.4652L10.2545 45.5651L16.4406 64.8455L20.8836 78.0462L26.7827 92.3098L31.4594 100.016L37.1352 107.764L48.221 117.744L56.9791 123.622L62.7824 128.373L72.5183 134.792L78.8425 139.065L88.5997 144.985L104.309 152.159L119.519 159.312L133.751 165.923L146.048 170.95L154.392 174.808L161.236 178.603L164.542 183.247L167.678 191.888L170.207 203.006L173.3 212.646Z" fill="#FED16A"/>
</svg>
